# xmcd CD database file
#
# Track frame offsets:
#	150
#	12455
#	26923
#	39779
#	53362
#	66468
#	87425
#	102444
#	118088
#	131533
#	147114
#	161684
#	176152
#	191621
#	208654
#	226272
#
# Disc length: 3236 seconds
#
# Revision: 3
# Processed by: cddbd v1.5.2PL0 Copyright (c) Steve Scherf et al.
# Submitted via: CDex 2.21
#
DISCID=df0ca210
DTITLE=Tanya Tucker - Don't Believe My Heart
DYEAR=2014
DGENRE=Country
TTITLE0=Don't Believe My Heart (Live)
TTITLE1=Can I See You Tonight (Live)
TTITLE2=One Love at a Time (Live)
TTITLE3=If Your Heart Ain't Busy (Live)
TTITLE4=Daddy and Home (Live)
TTITLE5=My Arms Stay Open (Live)
TTITLE6=Don't Go out with Him (Live)
TTITLE7=Here's Some Love (Live)
TTITLE8=Without You (Live)
TTITLE9=Soon (Live)
TTITLE10=Just Another Love (Live)
TTITLE11=You've Got Me to Hold Onto (Liv
TTITLE12=Old Weakness (Live)
TTITLE13=Spring (Live)
TTITLE14=Tell Me About It (Live)
TTITLE15=Little Things (Live)
EXTD=YEAR: 2014
EXTT0=
EXTT1=
EXTT2=
EXTT3=
EXTT4=
EXTT5=
EXTT6=
EXTT7=
EXTT8=
EXTT9=
EXTT10=
EXTT11=
EXTT12=
EXTT13=
EXTT14=
EXTT15=
PLAYORDER=
